<svg width="28" height="28" viewBox="0 0 28 28" fill="none" xmlns="http://www.w3.org/2000/svg">
<path fill-rule="evenodd" clip-rule="evenodd" d="M14 0.666687C6.63996 0.666687 0.666626 6.64002 0.666626 14C0.666626 21.36 6.63996 27.3334 14 27.3334C21.36 27.3334 27.3333 21.36 27.3333 14C27.3333 6.64002 21.36 0.666687 14 0.666687ZM14 24.6667C8.11996 24.6667 3.33329 19.88 3.33329 14C3.33329 8.12002 8.11996 3.33335 14 3.33335C19.88 3.33335 24.6666 8.12002 24.6666 14C24.6666 19.88 19.88 24.6667 14 24.6667ZM11.2933 10.6267C11.2933 11.6 12.0533 12.2534 14.4133 12.8534C16.76 13.4667 19.28 14.48 19.2933 17.4134C19.28 19.56 17.68 20.72 15.6533 21.1067V23.3334H12.5333V21.0667C10.5333 20.6534 8.85329 19.3734 8.71996 17.1067H11.0133C11.1333 18.3334 11.9733 19.2934 14.1066 19.2934C16.3866 19.2934 16.9066 18.1467 16.9066 17.44C16.9066 16.48 16.3866 15.56 13.7866 14.9467C10.8933 14.2534 8.90663 13.0534 8.90663 10.6667C8.90663 8.65335 10.52 7.34669 12.5333 6.92002V4.66669H15.64V6.94669C17.8 7.48002 18.8933 9.12002 18.96 10.9067H16.68C16.6266 9.60002 15.9333 8.72002 14.0933 8.72002C12.3466 8.72002 11.2933 9.50669 11.2933 10.6267Z" fill="#121111"/>
</svg>
